<svg xmlns="http://www.w3.org/2000/svg" viewBox="0 0 299.99 299.99"><defs><style>.cls-1{fill:#8ca0d7;}</style></defs><path class="cls-1" d="M150,161.49a15.59,15.59,0,0,0-7.78,29.1v17.34h15.56V190.59a15.59,15.59,0,0,0-7.78-29.1Z" transform="translate(0 0)"/><path class="cls-1" d="M150,85.85a23.79,23.79,0,0,0-23.77,23.77v25.32h47.55V109.62A23.81,23.81,0,0,0,150,85.85Z" transform="translate(0 0)"/><path class="cls-1" d="M150,0A150,150,0,1,0,300,150,150,150,0,0,0,150,0Zm46.1,227.12H103.91a17.62,17.62,0,0,1-17.62-17.63V152.57a17.62,17.62,0,0,1,14-17.25v-25.7a49.71,49.71,0,0,1,99.42,0v25.7a17.63,17.63,0,0,1,14,17.25v56.92h0A17.62,17.62,0,0,1,196.09,227.12Z" transform="translate(0 0)"/></svg>